<?xml version="1.0" standalone="no"?>
<!DOCTYPE svg PUBLIC "-//W3C//DTD SVG 20010904//EN"
 "http://www.w3.org/TR/2001/REC-SVG-20010904/DTD/svg10.dtd">
<svg version="1.0" xmlns="http://www.w3.org/2000/svg"
 width="800.000000pt" height="800.000000pt" viewBox="0 0 800.000000 800.000000"
 preserveAspectRatio="xMidYMid meet">
<metadata>
Created by potrace 1.15, written by Peter Selinger 2001-2017
</metadata>
<g transform="translate(0.000000,800.000000) scale(0.100000,-0.100000)"
fill="#000000" stroke="none">
<path d="M3710 7964 c-19 -2 -84 -9 -145 -15 -869 -87 -1725 -499 -2360 -1134
-993 -993 -1386 -2430 -1040 -3805 115 -458 331 -924 609 -1315 675 -951 1730
-1554 2891 -1654 154 -14 516 -14 670 0 813 70 1575 384 2203 909 706 589
1188 1418 1356 2330 47 255 60 413 60 720 0 307 -13 465 -60 720 -147 797
-528 1524 -1099 2095 -563 563 -1290 948 -2062 1090 -258 48 -363 57 -683 60
-168 2 -321 1 -340 -1z m704 -130 c1291 -142 2422 -927 3012 -2090 203 -401
330 -821 391 -1289 25 -199 25 -711 0 -910 -114 -884 -492 -1660 -1107 -2275
-625 -625 -1414 -1004 -2305 -1106 -207 -24 -606 -24 -810 0 -897 105 -1680
481 -2305 1106 -616 616 -993 1391 -1107 2275 -25 199 -25 711 0 910 135 1046
648 1955 1464 2592 604 471 1333 749 2108 803 159 11 485 3 659 -16z"/>
<path d="M1422 5489 c-153 -19 -299 -133 -356 -278 -24 -63 -35 -164 -25 -245
24 -194 171 -343 372 -376 135 -23 284 10 386 85 l61 45 0 165 0 165 -105 0
-105 0 0 -125 0 -124 -52 -16 c-193 -57 -348 53 -348 248 0 82 17 130 63 183
45 51 75 69 143 84 65 15 140 -2 205 -46 28 -19 54 -34 58 -34 4 0 31 34 59
75 l53 74 -43 32 c-58 42 -84 54 -148 72 -74 20 -142 25 -218 16z"/>
<path d="M2266 5448 c-7 -18 -93 -217 -190 -441 -97 -224 -176 -410 -176 -412
0 -3 49 -5 108 -5 l109 0 40 93 40 92 180 3 180 2 39 -92 40 -93 108 -3 c107
-3 108 -2 103 19 -3 11 -88 212 -189 445 l-183 424 -97 0 -98 0 -14 -32z m165
-376 l46 -107 -95 -3 c-52 -1 -96 -1 -99 1 -5 6 91 226 97 221 3 -3 26 -53 51
-112z"/>
<path d="M2940 5036 l0 -446 105 0 105 0 0 140 0 140 63 0 63 0 97 -140 98
-140 124 0 c69 0 125 2 125 5 0 3 -49 74 -109 158 l-109 152 27 14 c40 21 81
62 104 106 19 34 22 56 22 155 0 131 -16 177 -80 225 -70 54 -137 66 -397 72
l-238 6 0 -447z m460 244 c40 -21 49 -41 50 -101 0 -102 -43 -129 -207 -129
l-93 0 0 126 0 127 113 -5 c67 -3 122 -10 137 -18z"/>
<path d="M3850 5036 l0 -446 105 0 105 0 0 140 0 140 63 0 62 0 90 -131 c49
-72 95 -135 101 -140 7 -5 66 -8 133 -7 l122 3 -109 155 -109 154 43 28 c84
53 120 142 112 278 -8 139 -65 211 -193 246 -43 11 -126 17 -292 21 l-233 6 0
-447z m425 254 c23 -5 50 -21 64 -36 20 -24 23 -36 19 -85 -7 -97 -44 -119
-205 -119 l-93 0 0 125 0 125 88 0 c48 0 105 -5 127 -10z"/>
<path d="M4760 5035 l0 -445 325 0 325 0 0 90 0 90 -220 0 -220 0 0 90 0 90
195 0 195 0 0 85 0 85 -195 0 -195 0 0 85 0 85 215 0 215 0 0 95 0 95 -320 0
-320 0 0 -445z"/>
<path d="M5510 5390 l0 -90 120 0 120 0 0 -355 0 -355 105 0 105 0 0 355 0
355 125 0 125 0 0 90 0 90 -350 0 -350 0 0 -90z"/>
<path d="M6270 5390 l0 -90 120 0 120 0 0 -355 0 -355 105 0 105 0 0 355 0
355 125 0 125 0 0 90 0 90 -350 0 -350 0 0 -90z"/>
<path d="M2000 4000 c0 -20 7 -20 2000 -20 1993 0 2000 0 2000 20 0 20 -7 20
-2000 20 -1993 0 -2000 0 -2000 -20z"/>
</g>
</svg>
